# xmcd
# 
# Track frame offsets:
#     150
#     11570
#     25362
#     37120
#     49855
#     61490
#     75433
#     85971
#     98726
#     111841
#     122301
#     135101
#     148963
#     161663
# 
# Disc length: 2346
# 
# Revision: 5
# Processed by: cddbd v1.5.2PL0 Copyright (c) Steve Scherf et al.
# Submitted via: fre:ac v1.1beta1pre5
# 
DISCID=b209280e
DTITLE=Ray Charles - Hey Now!
DYEAR=1992
DGENRE=Blues
TTITLE0=Confession blues
TTITLE1=This love of mine
TTITLE2=How long blues
TTITLE3=Blues before sunrise
TTITLE4=See see rider
TTITLE5=Late in the evening blues
TTITLE6=I wonder who's kissing her now
TTITLE7=Lonely boy
TTITLE8=Baby, won't you please come home
TTITLE9=Hey now!
TTITLE10=The snow is falling
TTITLE11=Misery in my heart
TTITLE12=Why did you go
TTITLE13=Walkin' and talkin'
EXTD=
EXTT0=
EXTT1=
EXTT2=
EXTT3=
EXTT4=
EXTT5=
EXTT6=
EXTT7=
EXTT8=
EXTT9=
EXTT10=
EXTT11=
EXTT12=
EXTT13=
PLAYORDER=
